<svg width="20" height="20" viewBox="0 0 20 20" fill="none" xmlns="http://www.w3.org/2000/svg">
<g clip-path="url(#clip0_313_858)">
<mask id="mask0_313_858" style="mask-type:luminance" maskUnits="userSpaceOnUse" x="0" y="0" width="20" height="20">
<path d="M0 0H20V20H0V0Z" fill="white"/>
</mask>
<g mask="url(#mask0_313_858)">
<path d="M15.9375 3.75H4.0625C2.85438 3.75 1.875 4.72938 1.875 5.9375V14.0625C1.875 15.2706 2.85438 16.25 4.0625 16.25H15.9375C17.1456 16.25 18.125 15.2706 18.125 14.0625V5.9375C18.125 4.72938 17.1456 3.75 15.9375 3.75Z" stroke="#8B95A5" stroke-width="1.25" stroke-linejoin="round"/>
<path fill-rule="evenodd" clip-rule="evenodd" d="M18.125 6.32812H1.875V8.67189H18.125V6.32812ZM3.82812 11.7188V12.5C3.82812 12.5384 3.83 12.5767 3.83377 12.6149C3.83753 12.6531 3.84315 12.691 3.85064 12.7286C3.85813 12.7663 3.86744 12.8035 3.87859 12.8402C3.88973 12.8769 3.90264 12.913 3.91733 12.9485C3.93202 12.9839 3.94841 13.0186 3.9665 13.0524C3.98459 13.0863 4.0043 13.1192 4.02562 13.1511C4.04695 13.183 4.06978 13.2138 4.09413 13.2434C4.11848 13.2731 4.14422 13.3015 4.17136 13.3286C4.1985 13.3558 4.2269 13.3815 4.25657 13.4059C4.28624 13.4302 4.31703 13.4531 4.34894 13.4744C4.38085 13.4957 4.41373 13.5154 4.44758 13.5335C4.48143 13.5516 4.51608 13.568 4.55154 13.5827C4.587 13.5974 4.62309 13.6103 4.65982 13.6214C4.69655 13.6326 4.73373 13.6419 4.77138 13.6494C4.80902 13.6569 4.84694 13.6625 4.88514 13.6662C4.92333 13.67 4.96162 13.6719 5 13.6719H6.875C6.91338 13.6719 6.95167 13.67 6.98986 13.6662C7.02806 13.6625 7.06598 13.6569 7.10362 13.6494C7.14127 13.6419 7.17845 13.6326 7.21518 13.6214C7.25191 13.6103 7.288 13.5974 7.32346 13.5827C7.35892 13.568 7.39357 13.5516 7.42742 13.5335C7.46127 13.5154 7.49415 13.4957 7.52606 13.4744C7.55797 13.4531 7.58876 13.4302 7.61843 13.4059C7.6481 13.3815 7.6765 13.3558 7.70364 13.3286C7.73078 13.3015 7.75652 13.2731 7.78087 13.2434C7.80522 13.2138 7.82805 13.183 7.84938 13.1511C7.8707 13.1192 7.89041 13.0863 7.9085 13.0524C7.92659 13.0186 7.94298 12.9839 7.95767 12.9485C7.97236 12.913 7.98527 12.8769 7.99642 12.8402C8.00756 12.8035 8.01687 12.7663 8.02436 12.7286C8.03185 12.691 8.03747 12.6531 8.04123 12.6149C8.045 12.5767 8.04688 12.5384 8.04688 12.5V11.7188C8.04688 11.6804 8.045 11.6421 8.04123 11.6039C8.03747 11.5657 8.03185 11.5278 8.02436 11.4901C8.01687 11.4525 8.00756 11.4153 7.99641 11.3786C7.98527 11.3418 7.97236 11.3058 7.95767 11.2703C7.94298 11.2348 7.92659 11.2002 7.9085 11.1663C7.89041 11.1325 7.8707 11.0996 7.84938 11.0677C7.82805 11.0358 7.80522 11.005 7.78087 10.9753C7.75652 10.9457 7.73078 10.9173 7.70364 10.8901C7.6765 10.863 7.6481 10.8372 7.61843 10.8129C7.58876 10.7885 7.55797 10.7657 7.52606 10.7444C7.49415 10.7231 7.46127 10.7033 7.42742 10.6853C7.39357 10.6672 7.35892 10.6508 7.32346 10.6361C7.288 10.6214 7.25191 10.6085 7.21518 10.5973C7.17845 10.5862 7.14127 10.5769 7.10362 10.5694C7.06598 10.5619 7.02806 10.5563 6.98986 10.5525C6.95167 10.5488 6.91338 10.5469 6.875 10.5469H5C4.96162 10.5469 4.92333 10.5488 4.88514 10.5525C4.84694 10.5563 4.80902 10.5619 4.77138 10.5694C4.73373 10.5769 4.69655 10.5862 4.65982 10.5973C4.62309 10.6085 4.587 10.6214 4.55154 10.6361C4.51608 10.6508 4.48143 10.6672 4.44758 10.6853C4.41373 10.7033 4.38085 10.7231 4.34894 10.7444C4.31703 10.7657 4.28624 10.7885 4.25657 10.8129C4.2269 10.8372 4.1985 10.863 4.17136 10.8901C4.14422 10.9173 4.11848 10.9457 4.09413 10.9753C4.06978 11.005 4.04695 11.0358 4.02562 11.0677C4.0043 11.0996 3.98459 11.1325 3.9665 11.1663C3.94841 11.2002 3.93202 11.2348 3.91733 11.2703C3.90264 11.3058 3.88973 11.3418 3.87859 11.3786C3.86744 11.4153 3.85813 11.4525 3.85064 11.4901C3.84315 11.5278 3.83753 11.5657 3.83377 11.6039C3.83 11.6421 3.82812 11.6804 3.82812 11.7188Z" fill="#8B95A5"/>
</g>
</g>
<defs>
<clipPath id="clip0_313_858">
<rect width="20" height="20" fill="white"/>
</clipPath>
</defs>
</svg>
